# Blender v2.79 (sub 0) OBJ File: 'conifer.blend'
# www.blender.org
v 0.748393 2.958485 -0.362138
v 0.147914 4.455725 0.039252
v 0.148594 4.451325 0.175504
v 0.752560 2.931501 0.473457
v 0.022289 2.973655 -0.776270
v 0.030623 2.919687 0.894918
v -0.004736 2.930540 0.561413
v 0.476119 2.938468 0.278864
v 0.463121 2.956090 -0.266025
v 0.002401 2.965641 -0.526480
v 0.029516 4.458199 -0.028276
v 0.030875 4.449399 0.244227
v -0.459489 2.958544 -0.271139
v -0.479456 2.941097 0.270867
v -0.695481 2.934857 0.480786
v -0.699648 2.961841 -0.354808
v -0.004856 1.578327 1.261544
v 1.040769 1.555806 0.667722
v 1.048956 1.503758 -0.533813
v 0.011520 1.474230 -1.141525
v -0.088202 4.456272 0.040447
v -0.087523 4.451872 0.176699
v -1.034105 1.496751 -0.547703
v -1.042292 1.548799 0.653831
v 0.009476 1.563534 0.919200
v 0.752485 1.547714 0.501456
v 0.794637 1.508858 -0.398084
v -0.011610 1.484972 -0.892023
v -0.812618 1.504512 -0.384327
v -0.748633 1.543947 0.521041
v 0.010265 0.418412 1.485211
v 1.289053 0.465675 0.729387
v 1.272647 0.572965 -0.752848
v -0.022546 0.632992 -1.479259
v -1.301333 0.585729 -0.723436
v -1.284927 0.478439 0.758799
v -0.162653 0.000000 0.162653
v -0.162653 0.804034 0.162653
v -0.162653 0.804034 -0.162653
v -0.162653 0.000000 -0.162653
v 0.162653 0.000000 -0.162653
v 0.162653 0.000000 0.162653
v 0.162653 0.804034 0.162653
v 0.162653 0.804034 -0.162653
vt 0.742370 0.948847
vt 0.785089 0.803710
vt 0.815830 0.948847
vt 0.617368 0.092576
vt 0.618271 0.141380
vt 0.593164 0.149859
vt 0.100668 0.684414
vt 0.164138 0.818543
vt 0.100335 0.817335
vt 0.668563 0.591058
vt 0.604842 0.726814
vt 0.605131 0.589850
vt 0.701326 0.093722
vt 0.720399 0.075020
vt 0.720399 0.149854
vt 0.542396 0.421444
vt 0.663497 0.514640
vt 0.541842 0.464500
vt 0.819621 0.593818
vt 0.742370 0.728500
vt 0.771872 0.589850
vt 0.467521 0.459449
vt 0.336521 0.421773
vt 0.467521 0.418189
vt 0.036904 0.818543
vt 0.256131 0.761559
vt 0.245758 0.743252
vt 0.266503 0.743250
vt 0.594438 0.727011
vt 0.541328 0.591058
vt 0.466056 0.376855
vt 0.842936 0.467393
vt 0.765684 0.332061
vt 0.813179 0.328130
vt 0.663497 0.328130
vt 0.541328 0.378943
vt 0.889638 0.948818
vt 0.932410 0.803710
vt 0.963096 0.948818
vt 0.427274 0.063405
vt 0.427939 0.037605
vt 0.519356 0.091337
vt 0.358607 0.189161
vt 0.430534 0.224186
vt 0.427939 0.252920
vt 0.036904 0.493415
vt 0.134414 0.424370
vt 0.137490 0.490838
vt 0.897393 0.037605
vt 0.804275 0.145609
vt 0.794207 0.065588
vt 0.418545 0.589796
vt 0.338971 0.705187
vt 0.336521 0.633010
vt 0.418545 0.820263
vt 0.337603 0.776914
vt 0.551538 0.826678
vt 0.643292 0.935254
vt 0.541328 0.907271
vt 0.137490 0.558738
vt 0.149809 0.037605
vt 0.262713 0.236942
vt 0.036904 0.237315
vt 0.167876 0.962303
vt 0.139294 0.893842
vt 0.167876 0.893753
vt 0.365104 0.895473
vt 0.336521 0.924599
vt 0.336521 0.895473
vt 0.211297 0.378847
vt 0.239881 0.450837
vt 0.211297 0.450837
vt 0.415474 0.934536
vt 0.444054 0.963662
vt 0.415474 0.963663
vt 0.211297 0.526047
vt 0.239880 0.598037
vt 0.211297 0.598037
vt 0.065487 0.962395
vt 0.036904 0.893753
vt 0.065487 0.893800
vt 0.773111 0.803710
vt 0.658638 0.164912
vt 0.656781 0.187273
vt 0.593164 0.075025
vt 0.656781 0.037605
vt 0.659742 0.067488
vt 0.111071 0.684611
vt 0.615185 0.727011
vt 0.699334 0.142253
vt 0.661209 0.421026
vt 0.848039 0.728500
vt 0.341004 0.514586
vt 0.090325 0.684611
vt 0.266503 0.755455
vt 0.245758 0.755458
vt 0.256131 0.737148
vt 0.336595 0.328130
vt 0.737305 0.467393
vt 0.920432 0.803710
vt 0.519356 0.198994
vt 0.493830 0.182751
vt 0.494152 0.106437
vt 0.354575 0.104357
vt 0.336521 0.091531
vt 0.336521 0.199188
vt 0.038153 0.378847
vt 0.897393 0.170671
vt 0.413835 0.705788
vt 0.643292 0.802221
vt 0.045116 0.609204
vt 0.036904 0.104300
vt 0.262713 0.103926
vt 0.149809 0.303636
vt 0.139294 0.962392
vt 0.365104 0.924598
vt 0.239880 0.378847
vt 0.444054 0.934535
vt 0.239881 0.526047
vt 0.036904 0.962348
vn 0.9288 0.3705 0.0073
vn -0.0025 -0.9995 -0.0323
vn 0.4609 0.3975 -0.7935
vn 0.4689 0.3457 0.8128
vn 0.4573 0.4089 0.7897
vn 0.9267 0.3756 -0.0100
vn 0.4683 0.3393 -0.8158
vn -0.4670 0.3997 -0.7888
vn 0.0025 0.9995 0.0323
vn -0.4590 0.3478 0.8175
vn -0.4596 0.3362 -0.8220
vn -0.9290 0.3694 -0.0223
vn -0.4705 0.4057 0.7836
vn -0.9269 0.3748 0.0167
vn 0.0031 -0.9991 0.0433
vn 0.4567 0.3944 0.7974
vn 0.8938 0.4480 0.0225
vn 0.4397 0.5059 -0.7421
vn -0.4515 0.5103 -0.7320
vn -0.8885 0.4568 0.0429
vn -0.4344 0.3989 0.8076
vn -0.0058 -0.9974 -0.0721
vn -1.0000 0.0000 0.0000
vn 0.0000 -1.0000 0.0000
vn 0.0000 0.0000 1.0000
vn 0.0000 1.0000 0.0000
vn 0.0000 0.0000 -1.0000
vn 1.0000 0.0000 0.0000
s off
f 1/1/1 3/2/1 4/3/1
f 8/4/2 9/5/2 1/6/2
f 11/7/3 1/8/3 5/9/3
f 4/10/4 12/11/4 6/12/4
f 14/13/2 15/14/2 16/15/2
f 7/16/5 18/17/5 8/18/5
f 8/19/6 19/20/6 9/21/6
f 9/22/7 20/23/7 10/24/7
f 16/25/8 11/7/8 5/9/8
f 21/26/9 12/27/9 2/28/9
f 6/12/10 22/29/10 15/30/10
f 20/23/11 13/31/11 10/24/11
f 23/32/12 14/33/12 13/34/12
f 24/35/13 7/16/13 14/36/13
f 15/37/14 21/38/14 16/39/14
f 27/40/15 19/41/15 18/42/15
f 29/43/15 30/44/15 24/45/15
f 31/46/16 26/47/16 25/48/16
f 32/49/17 27/50/17 26/51/17
f 33/52/18 28/53/18 27/54/18
f 28/53/19 35/55/19 29/56/19
f 29/57/20 36/58/20 30/59/20
f 30/60/21 31/46/21 25/48/21
f 33/61/22 31/62/22 35/63/22
f 38/64/23 40/65/23 37/66/23
f 41/67/24 37/68/24 40/69/24
f 43/70/25 37/71/25 42/72/25
f 39/73/26 43/74/26 44/75/26
f 39/76/27 41/77/27 40/78/27
f 44/79/28 42/80/28 41/81/28
f 1/1/1 2/82/1 3/2/1
f 10/83/2 5/84/2 9/5/2
f 5/84/2 1/6/2 9/5/2
f 4/85/2 6/86/2 8/4/2
f 6/86/2 7/87/2 8/4/2
f 4/85/2 8/4/2 1/6/2
f 11/7/3 2/88/3 1/8/3
f 4/10/4 3/89/4 12/11/4
f 16/15/2 5/84/2 13/90/2
f 5/84/2 10/83/2 13/90/2
f 7/87/2 6/86/2 15/14/2
f 16/15/2 13/90/2 14/13/2
f 14/13/2 7/87/2 15/14/2
f 7/16/5 17/91/5 18/17/5
f 8/19/6 18/92/6 19/20/6
f 9/22/7 19/93/7 20/23/7
f 16/25/8 21/94/8 11/7/8
f 2/28/9 11/95/9 21/26/9
f 21/26/9 22/96/9 12/27/9
f 12/27/9 3/97/9 2/28/9
f 6/12/10 12/11/10 22/29/10
f 20/23/11 23/98/11 13/31/11
f 23/32/12 24/99/12 14/33/12
f 24/35/13 17/91/13 7/16/13
f 15/37/14 22/100/14 21/38/14
f 18/42/15 17/101/15 25/102/15
f 18/42/15 25/102/15 26/103/15
f 28/104/15 20/105/15 27/40/15
f 20/105/15 19/41/15 27/40/15
f 18/42/15 26/103/15 27/40/15
f 23/106/15 20/105/15 28/104/15
f 23/106/15 28/104/15 29/43/15
f 25/102/15 17/101/15 30/44/15
f 17/101/15 24/45/15 30/44/15
f 23/106/15 29/43/15 24/45/15
f 31/46/16 32/107/16 26/47/16
f 32/49/17 33/108/17 27/50/17
f 33/52/18 34/109/18 28/53/18
f 28/53/19 34/109/19 35/55/19
f 29/57/20 35/110/20 36/58/20
f 30/60/21 36/111/21 31/46/21
f 35/63/22 34/112/22 33/61/22
f 33/61/22 32/113/22 31/62/22
f 31/62/22 36/114/22 35/63/22
f 38/64/23 39/115/23 40/65/23
f 41/67/24 42/116/24 37/68/24
f 43/70/25 38/117/25 37/71/25
f 39/73/26 38/118/26 43/74/26
f 39/76/27 44/119/27 41/77/27
f 44/79/28 43/120/28 42/80/28
