# Blender v2.79 (sub 0) OBJ File: 'deciduous.blend'
# www.blender.org
v 0.207342 -0.562736 2.202535
v -0.529341 -0.562736 2.202535
v -0.529341 0.173947 2.202535
v 0.207342 0.173947 2.939218
v 0.207341 -0.562736 2.939218
v -0.529341 -0.562736 2.939218
v -0.529341 0.173947 2.939218
v 0.093873 0.093873 0.000000
v 0.093873 -0.093873 0.000000
v -0.093873 -0.093873 0.000000
v -0.093873 0.093873 0.000000
v 0.093874 0.093873 2.759153
v 0.093873 -0.093873 2.759153
v -0.093873 -0.093873 2.759153
v -0.093873 0.093874 2.759153
v 0.442666 -0.042825 2.512106
v 0.001867 -0.042825 2.512106
v 0.442666 0.397974 2.952905
v 0.442665 -0.042825 2.952905
v 0.001867 -0.042825 2.952905
v 0.001867 0.397974 2.952905
v -0.147049 0.014069 3.083668
v -0.147049 -0.738362 3.083668
v 0.605381 -0.738362 3.083668
v 0.605382 0.014068 3.083668
v -0.147049 0.014069 2.331237
v -0.147049 -0.738362 2.331237
v 0.605382 -0.738362 2.331237
v 0.605382 0.014069 2.331237
v -0.678323 0.484217 2.788817
v -0.678323 -0.252466 2.788817
v 0.058360 -0.252466 2.788817
v 0.058360 0.484217 2.788817
v -0.678323 0.484217 2.052134
v -0.678323 -0.252466 2.052134
v 0.058360 -0.252466 2.052134
v 0.231701 0.836192 1.414353
v 0.231701 0.017836 1.414353
v -0.586655 0.017836 1.414353
v -0.586655 0.836192 1.414353
v 0.231701 0.836192 1.635686
v 0.231701 0.017836 1.635686
v -0.586655 0.017836 1.635686
v -0.586655 0.836192 1.635686
v -0.177477 0.427014 1.414353
v -0.177477 0.427014 1.635686
v 0.231701 0.427014 1.525019
v -0.177477 0.017836 1.525020
v -0.586655 0.427014 1.525019
v -0.177477 0.836192 1.525020
v 0.093873 0.093873 1.414353
v 0.093873 0.093873 1.635686
v 0.093873 0.017836 1.414353
v 0.093873 0.017836 1.451630
v 0.093873 0.017836 1.598409
v 0.093873 0.017836 1.635686
v -0.093873 0.093873 1.414353
v -0.093873 0.093874 1.635686
v -0.093873 0.017836 1.414353
v -0.093873 0.017836 1.502408
v -0.093873 0.017836 1.547631
v -0.093873 0.017836 1.635686
v 0.762771 0.900857 1.811974
v 0.762771 0.082501 1.811974
v -0.055586 0.082501 1.811974
v -0.055585 0.900857 1.811974
v 0.762771 0.900857 2.630330
v 0.762770 0.082501 2.630330
v -0.055586 0.082501 2.630330
v -0.055585 0.900857 2.630330
v 0.001867 0.082501 2.512106
v 0.442666 0.082501 2.512106
v -0.055586 0.173947 2.202535
v -0.055586 0.082501 2.202535
v 0.207342 0.082501 2.202535
v -0.055585 0.484217 2.052134
v -0.055586 0.082501 2.052134
v 0.058360 0.082501 2.052134
v 0.093873 0.093873 1.811974
v 0.093873 0.082501 1.811974
v 0.093873 0.093873 2.630330
v -0.055586 0.093873 1.811974
v 0.093874 0.082501 2.630330
v -0.055586 0.093873 2.630330
v -0.055586 0.484217 2.630330
v 0.058360 0.484217 2.630330
v 0.058360 0.082501 2.630330
v 0.207342 0.173947 2.630330
v 0.207342 0.082501 2.630330
v 0.442666 0.397974 2.630330
v -0.055586 0.173947 2.630330
v 0.001867 0.397974 2.630330
v 0.001867 0.082501 2.630330
v 0.442666 0.082501 2.630330
vt 0.853894 0.759404
vt 0.814465 0.799379
vt 0.814465 0.759404
vt 0.814465 0.625574
vt 0.853894 0.665549
vt 0.814465 0.665549
vt 0.970055 0.348269
vt 0.983635 0.385804
vt 0.946595 0.587477
vt 0.907167 0.000000
vt 0.946595 0.587477
vt 0.907167 0.587477
vt 0.867739 0.000000
vt 0.891199 0.239208
vt 0.891199 0.257956
vt 0.836351 0.201673
vt 0.828310 0.239208
vt 0.828310 0.000000
vt 0.867739 0.286334
vt 0.828310 0.587477
vt 0.828310 0.286334
vt 0.853894 0.799379
vt 0.853894 0.625574
vt 0.946595 0.000000
vt 0.986024 0.000000
vt 0.970055 0.301143
vt 0.986024 0.301143
vt 0.970055 0.309080
vt 0.970055 0.340332
vt 0.986024 0.560048
vt 0.986024 0.587477
vt 0.983635 0.560048
vt 0.986024 0.348269
vt 0.986024 0.385804
vt 0.946595 0.000000
vt 0.907167 0.587477
vt 0.867739 0.587477
vt 0.891199 0.286334
vt 0.907167 0.000000
vt 0.907167 0.239208
vt 0.907167 0.286334
vt 0.891199 0.267585
vt 0.867738 0.000000
vt 0.836351 0.027429
vt 0.867738 0.027429
vt 0.867738 0.201673
vt 0.867739 0.239208
vt 0.867739 0.587477
vt 0.154709 0.839793
vt 0.000000 0.682939
vt 0.154709 0.682939
vt 0.659756 0.665549
vt 0.814465 0.822403
vt 0.659756 0.822403
vt 0.828310 0.331098
vt 0.673601 0.174244
vt 0.828310 0.174244
vt 0.724625 0.564677
vt 0.814465 0.665549
vt 0.659756 0.665549
vt 0.752327 0.822403
vt 0.659756 0.916258
vt 0.659756 0.822403
vt 0.752327 0.822403
vt 0.844899 0.916258
vt 0.752327 0.916258
vt 0.343723 0.825756
vt 0.411466 0.825756
vt 0.411466 0.892926
vt 0.275416 0.930294
vt 0.343159 0.836440
vt 0.343159 0.930294
vt 0.659756 0.508695
vt 0.501739 0.348488
vt 0.659756 0.348488
vt 0.515584 0.160207
vt 0.673601 0.000000
vt 0.673601 0.160207
vt 0.343723 0.348488
vt 0.501739 0.508695
vt 0.343723 0.508695
vt 0.343723 0.668902
vt 0.501739 0.508695
vt 0.501739 0.668902
vt 0.158016 0.682939
vt 0.000000 0.522732
vt 0.158017 0.522732
vt 0.673601 0.174244
vt 0.515584 0.334451
vt 0.515584 0.174244
vt 0.659756 0.505342
vt 0.814465 0.348488
vt 0.814465 0.505342
vt 0.377006 0.693163
vt 0.498432 0.825756
vt 0.343723 0.825756
vt 0.659756 0.665549
vt 0.505046 0.822403
vt 0.505046 0.665549
vt 0.505046 0.508695
vt 0.659756 0.665549
vt 0.505046 0.665549
vt 0.515584 0.174244
vt 0.343723 0.174244
vt 0.429653 0.087122
vt 0.436294 0.825756
vt 0.482776 0.825756
vt 0.459535 0.912878
vt 0.953518 0.839793
vt 0.992172 0.810447
vt 1.000000 0.839793
vt 0.953518 0.839793
vt 0.907037 0.839793
vt 0.930277 0.752671
vt 0.860555 0.759404
vt 0.907037 0.759404
vt 0.883796 0.846526
vt 0.343723 0.174244
vt 0.515584 0.174244
vt 0.429653 0.261366
vt 0.499616 0.203590
vt 0.499616 0.243565
vt 0.515584 0.348488
vt 0.343723 0.348488
vt 0.343723 0.000000
vt 0.486639 0.016190
vt 0.515584 0.000000
vt 0.482776 1.000000
vt 0.436294 1.000000
vt 0.953518 0.810447
vt 0.961347 0.810447
vt 0.953518 0.665549
vt 1.000000 0.665549
vt 0.976759 0.752671
vt 1.000000 0.770472
vt 0.907037 0.665549
vt 0.953518 0.665549
vt 0.907037 0.933647
vt 0.860555 0.933648
vt 1.000000 0.810447
vt 0.981508 0.770472
vt 0.972011 0.770472
vt 0.953518 0.770472
vt 0.169473 0.490909
vt 0.169473 0.522732
vt 0.000000 0.522732
vt 0.343723 0.348488
vt 0.256225 0.324227
vt 0.238113 0.242401
vt 0.343723 0.174244
vt 0.171861 0.000000
vt 0.343723 0.000000
vt 0.171861 0.091086
vt 0.116644 0.000000
vt 0.140474 0.174244
vt 0.261702 0.522732
vt 0.171861 0.520310
vt 0.343723 0.520310
vt 0.000000 0.348488
vt 0.171861 0.174244
vt 0.171861 0.348488
vt 0.673601 0.156854
vt 0.673601 0.000000
vt 0.809106 0.091086
vt 0.147932 0.123109
vt 0.171861 0.174244
vt 0.159796 0.000000
vt 0.067225 0.025172
vt 0.116645 0.091086
vt 0.242380 0.556477
vt 0.158017 0.522732
vt 0.312726 0.522732
vt 0.158016 0.836440
vt 0.158017 0.679586
vt 0.288796 0.765119
vt 0.158016 0.930294
vt 0.158017 0.836440
vt 0.184336 0.861612
vt 0.191066 0.292505
vt 0.191066 0.348488
vt 0.174250 0.348488
vt 0.174250 0.316665
vt 0.659756 0.979257
vt 0.505046 0.979257
vt 0.524251 0.878385
vt 0.171861 0.522732
vt 0.171861 0.437199
vt 0.343723 0.348488
vt 0.814465 0.692233
vt 0.907037 0.665549
vt 0.907037 0.692233
vt 0.000000 0.839793
vt 0.814465 0.665549
vt 0.673601 0.331098
vt 0.659756 0.508695
vt 0.724625 0.508695
vt 0.814465 0.564677
vt 0.752327 0.916258
vt 0.844898 0.822403
vt 0.436294 0.892926
vt 0.436294 0.919611
vt 0.343723 0.919611
vt 0.275416 0.836440
vt 0.501739 0.508695
vt 0.515584 0.000000
vt 0.501739 0.348488
vt 0.343723 0.508695
vt 0.000000 0.682939
vt 0.673601 0.334451
vt 0.659756 0.348488
vt 0.343723 0.668902
vt 0.377006 0.668902
vt 0.498432 0.693163
vt 0.659756 0.822403
vt 0.659756 0.508695
vt 0.515584 0.203590
vt 0.515584 0.243565
vt 0.447211 0.016190
vt 0.447211 0.000000
vt 0.486639 0.000000
vt 0.000000 0.348488
vt 0.171861 0.348488
vt 0.171861 0.490909
vt 0.171861 0.174244
vt 0.256225 0.348488
vt 0.171861 0.324227
vt 0.171861 0.316665
vt 0.171861 0.348488
vt 0.171861 0.336255
vt 0.238113 0.336255
vt 0.171861 0.242400
vt 0.000000 0.174244
vt 0.000000 0.000000
vt 0.067225 0.000000
vt 0.159796 0.025172
vt 0.171861 0.000000
vt 0.140474 0.000000
vt 0.343723 0.522732
vt 0.293287 0.522732
vt 0.171861 0.522732
vt 0.000000 0.174244
vt 0.809106 0.000000
vt 0.828310 0.091086
vt 0.828310 0.156854
vt 0.147932 0.000000
vt 0.171861 0.123109
vt 0.312726 0.679586
vt 0.242380 0.679586
vt 0.158017 0.556477
vt 0.288796 0.679586
vt 0.312726 0.765119
vt 0.312726 0.836440
vt 0.184336 0.836440
vt 0.250588 0.861612
vt 0.250588 0.930294
vt 0.171861 0.292505
vt 0.505046 0.878385
vt 0.524251 0.822403
vt 0.171861 0.503261
vt 0.814465 0.665549
vn 0.0000 0.0000 -1.0000
vn -0.0000 0.0000 1.0000
vn 1.0000 -0.0000 0.0000
vn -0.0000 -1.0000 0.0000
vn -1.0000 -0.0000 -0.0000
vn 0.0000 1.0000 0.0000
s off
f 9/1/1 11/2/1 8/3/1
f 15/4/2 13/5/2 12/6/2
f 56/7/3 80/8/3 13/9/3
f 13/10/4 10/11/4 9/12/4
f 14/13/5 62/14/5 61/15/5
f 82/16/6 58/17/6 15/18/6
f 51/19/6 11/20/6 57/21/6
f 9/1/1 10/22/1 11/2/1
f 15/4/2 14/23/2 13/5/2
f 9/24/3 8/25/3 53/26/3
f 8/25/3 51/27/3 53/26/3
f 53/26/3 54/28/3 13/9/3
f 54/28/3 55/29/3 13/9/3
f 81/30/3 12/31/3 83/32/3
f 12/31/3 13/9/3 83/32/3
f 13/9/3 9/24/3 53/26/3
f 80/8/3 83/32/3 13/9/3
f 52/33/3 79/34/3 80/8/3
f 13/9/3 55/29/3 56/7/3
f 56/7/3 52/33/3 80/8/3
f 13/10/4 14/35/4 10/11/4
f 11/36/5 10/37/5 59/38/5
f 10/37/5 14/13/5 59/38/5
f 14/13/5 15/39/5 62/14/5
f 15/39/5 58/40/5 62/14/5
f 59/38/5 57/41/5 11/36/5
f 61/15/5 60/42/5 14/13/5
f 60/42/5 59/38/5 14/13/5
f 15/18/6 12/43/6 84/44/6
f 12/43/6 81/45/6 84/44/6
f 79/46/6 52/47/6 82/16/6
f 52/47/6 58/17/6 82/16/6
f 15/18/6 84/44/6 82/16/6
f 51/19/6 8/48/6 11/20/6
f 7/49/2 5/50/2 4/51/2
f 5/52/4 2/53/4 1/54/4
f 2/55/5 7/56/5 3/57/5
f 91/58/6 3/59/6 7/60/6
f 21/61/2 19/62/2 18/63/2
f 19/64/4 17/65/4 16/66/4
f 21/67/5 92/68/5 93/69/5
f 90/70/6 21/71/6 18/72/6
f 29/73/6 22/74/6 25/75/6
f 23/76/5 26/77/5 27/78/5
f 24/79/4 27/80/4 28/81/4
f 25/82/3 28/83/3 29/84/3
f 22/85/2 24/86/2 25/87/2
f 28/88/1 26/89/1 29/90/1
f 31/91/5 34/92/5 35/93/5
f 85/94/6 34/95/6 30/96/6
f 33/97/2 31/98/2 32/99/2
f 32/100/4 35/101/4 36/102/4
f 41/103/2 44/104/2 46/105/2
f 37/106/3 41/107/3 47/108/3
f 42/109/4 54/110/4 38/111/4
f 39/112/5 43/113/5 49/114/5
f 41/115/6 37/116/6 50/117/6
f 37/118/1 38/119/1 45/120/1
f 51/121/1 57/122/1 45/120/1
f 39/123/1 40/124/1 45/120/1
f 40/124/1 37/118/1 45/120/1
f 44/104/2 43/125/2 46/105/2
f 52/126/2 42/127/2 46/105/2
f 42/127/2 41/103/2 46/105/2
f 41/107/3 42/128/3 47/108/3
f 42/128/3 38/129/3 47/108/3
f 38/129/3 37/106/3 47/108/3
f 42/109/4 56/130/4 55/131/4
f 43/132/4 39/133/4 48/134/4
f 59/135/4 48/134/4 39/133/4
f 43/113/5 44/136/5 49/114/5
f 44/136/5 40/137/5 49/114/5
f 40/137/5 39/112/5 49/114/5
f 37/116/6 40/138/6 50/117/6
f 40/138/6 44/139/6 50/117/6
f 44/139/6 41/115/6 50/117/6
f 54/110/4 53/140/4 38/111/4
f 60/141/4 61/142/4 48/134/4
f 62/143/4 48/134/4 61/142/4
f 79/144/1 82/145/1 66/146/1
f 70/147/2 86/148/2 90/149/2
f 67/150/3 64/151/3 63/152/3
f 74/153/6 89/154/6 80/155/6
f 74/156/5 84/157/5 82/158/5
f 67/159/6 66/160/6 70/161/6
f 5/162/3 1/163/3 89/164/3
f 80/155/4 78/165/4 65/166/4
f 93/167/6 72/168/6 75/169/6
f 87/170/3 33/171/3 32/172/3
f 35/173/1 34/174/1 77/175/1
f 19/176/3 16/177/3 94/178/3
f 90/149/2 86/148/2 88/179/2
f 91/180/2 84/181/2 81/182/2
f 2/183/1 3/184/1 74/185/1
f 79/144/1 65/186/1 82/145/1
f 85/187/5 70/161/5 66/188/5
f 72/189/1 17/190/1 71/191/1
f 7/49/2 6/192/2 5/50/2
f 5/52/4 6/193/4 2/53/4
f 2/55/5 6/194/5 7/56/5
f 7/60/6 4/195/6 91/58/6
f 4/195/6 88/196/6 91/58/6
f 91/58/6 73/197/6 3/59/6
f 21/61/2 20/198/2 19/62/2
f 19/64/4 20/199/4 17/65/4
f 71/200/5 17/201/5 93/69/5
f 17/201/5 20/202/5 93/69/5
f 20/202/5 21/67/5 93/69/5
f 90/70/6 92/203/6 21/71/6
f 29/73/6 26/204/6 22/74/6
f 23/76/5 22/205/5 26/77/5
f 24/79/4 23/206/4 27/80/4
f 25/82/3 24/207/3 28/83/3
f 22/85/2 23/208/2 24/86/2
f 28/88/1 27/209/1 26/89/1
f 31/91/5 30/210/5 34/92/5
f 30/96/6 33/211/6 85/94/6
f 33/211/6 86/212/6 85/94/6
f 85/94/6 76/213/6 34/95/6
f 33/97/2 30/214/2 31/98/2
f 32/100/4 31/215/4 35/101/4
f 42/109/4 55/131/4 54/110/4
f 38/119/1 53/216/1 51/121/1
f 57/122/1 59/217/1 39/123/1
f 45/120/1 38/119/1 51/121/1
f 57/122/1 39/123/1 45/120/1
f 46/105/2 43/125/2 58/218/2
f 43/125/2 62/219/2 58/218/2
f 52/126/2 56/220/2 42/127/2
f 46/105/2 58/218/2 52/126/2
f 59/135/4 60/141/4 48/134/4
f 62/143/4 43/132/4 48/134/4
f 66/146/1 63/221/1 79/144/1
f 63/221/1 64/222/1 79/144/1
f 64/222/1 80/223/1 79/144/1
f 68/224/2 67/150/2 90/149/2
f 67/150/2 70/147/2 90/149/2
f 70/147/2 85/225/2 86/148/2
f 86/148/2 87/226/2 83/227/2
f 83/227/2 81/182/2 84/181/2
f 84/181/2 69/228/2 93/229/2
f 84/181/2 93/229/2 92/230/2
f 86/148/1 83/227/1 92/230/1
f 83/227/1 84/181/1 92/230/1
f 90/149/2 94/231/2 68/224/2
f 86/148/2 92/230/2 90/149/2
f 67/150/3 68/224/3 64/151/3
f 80/155/4 64/232/4 72/168/4
f 64/232/4 68/233/4 72/168/4
f 68/233/4 94/234/4 72/168/4
f 71/235/4 93/167/4 69/236/4
f 71/235/4 69/236/4 74/153/4
f 80/155/4 72/168/4 74/153/4
f 72/168/4 71/235/4 74/153/4
f 89/154/4 83/237/4 80/155/4
f 74/153/4 75/169/4 89/154/4
f 82/158/5 65/238/5 77/239/5
f 74/156/5 69/240/5 84/157/5
f 82/158/5 77/239/5 74/156/5
f 67/159/6 63/241/6 66/160/6
f 1/163/3 75/242/3 89/164/3
f 89/164/3 88/243/3 4/244/3
f 4/244/3 5/162/3 89/164/3
f 80/155/4 83/237/4 78/165/4
f 83/237/4 87/245/4 78/165/4
f 78/165/4 77/246/4 65/166/4
f 74/153/4 77/246/4 78/165/4
f 78/165/4 87/245/4 93/167/4
f 93/167/4 71/235/4 72/168/4
f 72/168/4 94/234/4 89/154/4
f 75/169/4 74/153/4 78/165/4
f 72/168/4 89/154/4 75/169/4
f 78/165/6 93/167/6 75/169/6
f 36/247/3 78/248/3 87/170/3
f 87/170/3 86/249/3 33/171/3
f 32/172/3 36/247/3 87/170/3
f 34/174/1 76/250/1 77/175/1
f 77/175/1 78/251/1 36/252/1
f 36/252/1 35/173/1 77/175/1
f 16/177/3 72/253/3 94/178/3
f 94/178/3 90/254/3 18/255/3
f 18/255/3 19/176/3 94/178/3
f 89/256/2 94/231/2 88/179/2
f 94/231/2 90/149/2 88/179/2
f 90/149/2 92/230/2 93/229/2
f 93/229/2 87/226/2 86/148/2
f 86/148/2 85/225/2 91/180/2
f 86/148/2 91/180/2 88/179/2
f 90/149/1 93/229/1 86/148/1
f 83/227/2 89/256/2 81/182/2
f 89/256/2 88/179/2 81/182/2
f 88/179/2 91/180/2 81/182/2
f 3/184/1 73/257/1 74/185/1
f 74/185/1 75/258/1 1/54/1
f 1/54/1 2/183/1 74/185/1
f 79/144/1 80/223/1 65/186/1
f 66/188/5 82/158/5 85/187/5
f 82/158/5 84/157/5 91/259/5
f 91/259/5 85/187/5 82/158/5
f 72/189/1 16/260/1 17/190/1
