# Blender v2.79 (sub 0) OBJ File: 'smoke.blend'
# www.blender.org
v -0.000000 0.256680 -0.121509
v 0.000000 0.148195 -0.210459
v 0.000000 0.000000 -0.243017
v 0.000000 -0.148195 -0.210459
v -0.000000 -0.256680 -0.121509
v 0.000000 0.296389 0.000000
v 0.105230 0.256680 -0.060754
v 0.182263 0.148195 -0.105230
v 0.210459 0.000000 -0.121509
v 0.182263 -0.148195 -0.105230
v 0.105230 -0.256680 -0.060754
v 0.105230 0.256680 0.060754
v 0.182263 0.148195 0.105230
v 0.210459 0.000000 0.121509
v 0.182263 -0.148195 0.105230
v 0.105230 -0.256680 0.060754
v -0.000000 0.256680 0.121509
v 0.000000 0.148195 0.210459
v 0.000000 0.000000 0.243017
v 0.000000 -0.148195 0.210459
v -0.000000 -0.256680 0.121509
v 0.000000 -0.296389 0.000000
v -0.105229 0.256680 0.060754
v -0.182263 0.148195 0.105230
v -0.210459 0.000000 0.121509
v -0.182263 -0.148195 0.105230
v -0.105229 -0.256680 0.060754
v -0.105230 0.256680 -0.060754
v -0.182263 0.148195 -0.105230
v -0.210459 0.000000 -0.121509
v -0.182263 -0.148195 -0.105230
v -0.105230 -0.256680 -0.060754
vt 0.726976 0.978477
vt 0.649701 0.773508
vt 0.718723 0.773508
vt 0.905828 0.273508
vt 0.968224 0.106252
vt 0.974850 0.273508
vt 0.656327 0.606252
vt 0.696177 0.606252
vt 0.977275 0.478477
vt 0.897575 0.478477
vt 0.928374 0.106252
vt 0.959174 0.021523
vt 0.665377 0.521523
vt 0.569117 0.086470
vt 0.476466 0.247966
vt 0.496740 0.081807
vt 0.601826 0.484805
vt 0.443757 0.703383
vt 0.457072 0.475479
vt 0.512463 0.875275
vt 0.447045 0.932357
vt 0.440086 0.870612
vt 0.512463 0.021523
vt 0.601826 0.256043
vt 0.569117 0.711460
vt 0.370748 0.241155
vt 0.435704 0.077874
vt 0.335000 0.467614
vt 0.379050 0.866679
vt 0.338039 0.696572
vt 0.696177 0.106252
vt 0.649701 0.273508
vt 0.656327 0.106252
vt 0.772425 0.478477
vt 0.849700 0.273508
vt 0.852126 0.478477
vt 0.803225 0.106252
vt 0.834024 0.021523
vt 0.843075 0.106252
vt 0.665377 0.021523
vt 0.726976 0.478477
vt 0.718723 0.273508
vt 0.780678 0.273508
vt 0.256842 0.711460
vt 0.144797 0.475479
vt 0.289551 0.484805
vt 0.200188 0.875275
vt 0.134770 0.932357
vt 0.127811 0.870612
vt 0.200188 0.021523
vt 0.256841 0.086470
vt 0.184464 0.081807
vt 0.164190 0.247966
vt 0.289551 0.256043
vt 0.131481 0.703383
vt 0.066775 0.866679
vt 0.123428 0.077875
vt 0.022725 0.467614
vt 0.058473 0.241155
vt 0.025764 0.696572
vt 0.647276 0.978477
vt 0.647276 0.478477
vn 0.4912 -0.1869 -0.8508
vn 0.4077 0.5790 -0.7061
vn 0.4077 -0.5790 -0.7061
vn 0.4912 0.1869 -0.8508
vn 0.1765 0.9356 -0.3058
vn 0.1765 -0.9356 -0.3058
vn 0.8154 -0.5790 -0.0000
vn 0.9824 0.1869 -0.0000
vn 0.3531 0.9356 -0.0000
vn 0.3531 -0.9356 -0.0000
vn 0.9824 -0.1869 0.0000
vn 0.8154 0.5790 -0.0000
vn 0.4077 -0.5790 0.7061
vn 0.4912 0.1869 0.8508
vn 0.1765 0.9356 0.3058
vn 0.1765 -0.9356 0.3058
vn 0.4912 -0.1869 0.8508
vn 0.4077 0.5790 0.7061
vn -0.4077 -0.5790 0.7061
vn -0.4912 0.1869 0.8508
vn -0.1765 0.9356 0.3058
vn -0.1765 -0.9356 0.3058
vn -0.4912 -0.1869 0.8508
vn -0.4077 0.5790 0.7061
vn -0.9824 0.1869 -0.0000
vn -0.3531 0.9356 0.0000
vn -0.3531 -0.9356 0.0000
vn -0.9824 -0.1869 0.0000
vn -0.8154 0.5790 0.0000
vn -0.8154 -0.5790 0.0000
vn -0.1765 0.9356 -0.3058
vn -0.1765 -0.9356 -0.3058
vn -0.4912 -0.1869 -0.8508
vn -0.4077 0.5790 -0.7061
vn -0.4077 -0.5790 -0.7061
vn -0.4912 0.1869 -0.8508
s off
f 3/1/1 10/2/1 4/3/1
f 2/4/2 7/5/2 8/6/2
f 4/3/3 11/7/3 5/8/3
f 2/4/4 9/9/4 3/10/4
f 1/11/5 6/12/5 7/5/5
f 22/13/6 5/8/6 11/7/6
f 11/14/7 15/15/7 16/16/7
f 9/17/8 13/18/8 14/19/8
f 7/20/9 6/21/9 12/22/9
f 22/23/10 11/14/10 16/16/10
f 9/17/11 15/15/11 10/24/11
f 8/25/12 12/22/12 13/18/12
f 16/16/13 20/26/13 21/27/13
f 13/18/14 19/28/14 14/19/14
f 12/22/15 6/21/15 17/29/15
f 22/23/16 16/16/16 21/27/16
f 15/15/17 19/28/17 20/26/17
f 12/22/18 18/30/18 13/18/18
f 21/31/19 26/32/19 27/33/19
f 19/34/20 24/35/20 25/36/20
f 17/37/21 6/38/21 23/39/21
f 22/40/22 21/31/22 27/33/22
f 19/41/23 26/32/23 20/42/23
f 17/37/24 24/35/24 18/43/24
f 24/44/25 30/45/25 25/46/25
f 23/47/26 6/48/26 28/49/26
f 22/50/27 27/51/27 32/52/27
f 25/46/28 31/53/28 26/54/28
f 24/44/29 28/49/29 29/55/29
f 26/54/30 32/52/30 27/51/30
f 28/49/31 6/48/31 1/56/31
f 22/50/32 32/52/32 5/57/32
f 31/53/33 3/58/33 4/59/33
f 29/55/34 1/56/34 2/60/34
f 31/53/35 5/57/35 32/52/35
f 29/55/36 3/58/36 30/45/36
f 3/1/1 9/61/1 10/2/1
f 2/4/2 1/11/2 7/5/2
f 4/3/3 10/2/3 11/7/3
f 2/4/4 8/6/4 9/9/4
f 11/14/7 10/24/7 15/15/7
f 9/17/8 8/25/8 13/18/8
f 9/17/11 14/19/11 15/15/11
f 8/25/12 7/20/12 12/22/12
f 16/16/13 15/15/13 20/26/13
f 13/18/14 18/30/14 19/28/14
f 15/15/17 14/19/17 19/28/17
f 12/22/18 17/29/18 18/30/18
f 21/31/19 20/42/19 26/32/19
f 19/34/20 18/43/20 24/35/20
f 19/41/23 25/62/23 26/32/23
f 17/37/24 23/39/24 24/35/24
f 24/44/25 29/55/25 30/45/25
f 25/46/28 30/45/28 31/53/28
f 24/44/29 23/47/29 28/49/29
f 26/54/30 31/53/30 32/52/30
f 31/53/33 30/45/33 3/58/33
f 29/55/34 28/49/34 1/56/34
f 31/53/35 4/59/35 5/57/35
f 29/55/36 2/60/36 3/58/36
